<mxfile host="app.diagrams.net" modified="2023-08-23T02:31:23.389Z" agent="Mozilla/5.0 (X11; Linux x86_64) AppleWebKit/537.36 (KHTML, like Gecko) Chrome/115.0.0.0 Safari/537.36" etag="WhoKD3Z2ZTsYEKsa9p8I" version="21.6.9" type="google">
  <diagram id="C5RBs43oDa-KdzZeNtuy" name="Page-1">
    <mxGraphModel grid="1" page="1" gridSize="10" guides="1" tooltips="1" connect="1" arrows="1" fold="1" pageScale="1" pageWidth="827" pageHeight="1169" math="0" shadow="0">
      <root>
        <mxCell id="WIyWlLk6GJQsqaUBKTNV-0" />
        <mxCell id="WIyWlLk6GJQsqaUBKTNV-1" parent="WIyWlLk6GJQsqaUBKTNV-0" />
        <mxCell id="SK56SwvHm7U0KlrYau49-0" value="User" style="swimlane;fontStyle=0;childLayout=stackLayout;horizontal=1;startSize=26;fillColor=none;horizontalStack=0;resizeParent=1;resizeParentMax=0;resizeLast=0;collapsible=1;marginBottom=0;whiteSpace=wrap;html=1;" vertex="1" parent="WIyWlLk6GJQsqaUBKTNV-1">
          <mxGeometry x="278" y="180" width="152" height="286" as="geometry" />
        </mxCell>
        <mxCell id="SK56SwvHm7U0KlrYau49-1" value="+ name: String" style="text;strokeColor=none;fillColor=none;align=left;verticalAlign=top;spacingLeft=4;spacingRight=4;overflow=hidden;rotatable=0;points=[[0,0.5],[1,0.5]];portConstraint=eastwest;whiteSpace=wrap;html=1;" vertex="1" parent="SK56SwvHm7U0KlrYau49-0">
          <mxGeometry y="26" width="152" height="26" as="geometry" />
        </mxCell>
        <mxCell id="SK56SwvHm7U0KlrYau49-41" value="+ picture: File" style="text;strokeColor=none;fillColor=none;align=left;verticalAlign=top;spacingLeft=4;spacingRight=4;overflow=hidden;rotatable=0;points=[[0,0.5],[1,0.5]];portConstraint=eastwest;whiteSpace=wrap;html=1;" vertex="1" parent="SK56SwvHm7U0KlrYau49-0">
          <mxGeometry y="52" width="152" height="26" as="geometry" />
        </mxCell>
        <mxCell id="SK56SwvHm7U0KlrYau49-15" value="+ username: String" style="text;strokeColor=none;fillColor=none;align=left;verticalAlign=top;spacingLeft=4;spacingRight=4;overflow=hidden;rotatable=0;points=[[0,0.5],[1,0.5]];portConstraint=eastwest;whiteSpace=wrap;html=1;" vertex="1" parent="SK56SwvHm7U0KlrYau49-0">
          <mxGeometry y="78" width="152" height="26" as="geometry" />
        </mxCell>
        <mxCell id="SK56SwvHm7U0KlrYau49-2" value="+ email: String" style="text;strokeColor=none;fillColor=none;align=left;verticalAlign=top;spacingLeft=4;spacingRight=4;overflow=hidden;rotatable=0;points=[[0,0.5],[1,0.5]];portConstraint=eastwest;whiteSpace=wrap;html=1;" vertex="1" parent="SK56SwvHm7U0KlrYau49-0">
          <mxGeometry y="104" width="152" height="26" as="geometry" />
        </mxCell>
        <mxCell id="SK56SwvHm7U0KlrYau49-4" value="+ phone: Int" style="text;strokeColor=none;fillColor=none;align=left;verticalAlign=top;spacingLeft=4;spacingRight=4;overflow=hidden;rotatable=0;points=[[0,0.5],[1,0.5]];portConstraint=eastwest;whiteSpace=wrap;html=1;" vertex="1" parent="SK56SwvHm7U0KlrYau49-0">
          <mxGeometry y="130" width="152" height="26" as="geometry" />
        </mxCell>
        <mxCell id="ENqfuSwn85bR71tKV6ZV-0" value="+ logged: bool" style="text;strokeColor=none;fillColor=none;align=left;verticalAlign=top;spacingLeft=4;spacingRight=4;overflow=hidden;rotatable=0;points=[[0,0.5],[1,0.5]];portConstraint=eastwest;whiteSpace=wrap;html=1;" vertex="1" parent="SK56SwvHm7U0KlrYau49-0">
          <mxGeometry y="156" width="152" height="26" as="geometry" />
        </mxCell>
        <mxCell id="SK56SwvHm7U0KlrYau49-49" value="+ dark_mode: DarkMode" style="text;strokeColor=none;fillColor=none;align=left;verticalAlign=top;spacingLeft=4;spacingRight=4;overflow=hidden;rotatable=0;points=[[0,0.5],[1,0.5]];portConstraint=eastwest;whiteSpace=wrap;html=1;" vertex="1" parent="SK56SwvHm7U0KlrYau49-0">
          <mxGeometry y="182" width="152" height="26" as="geometry" />
        </mxCell>
        <mxCell id="SK56SwvHm7U0KlrYau49-42" value="+ steps : List &amp;lt;Steps&amp;gt;" style="text;strokeColor=none;fillColor=none;align=left;verticalAlign=top;spacingLeft=4;spacingRight=4;overflow=hidden;rotatable=0;points=[[0,0.5],[1,0.5]];portConstraint=eastwest;whiteSpace=wrap;html=1;" vertex="1" parent="SK56SwvHm7U0KlrYau49-0">
          <mxGeometry y="208" width="152" height="26" as="geometry" />
        </mxCell>
        <mxCell id="SK56SwvHm7U0KlrYau49-3" value="+ habits: List&amp;lt;Habit&amp;gt;" style="text;strokeColor=none;fillColor=none;align=left;verticalAlign=top;spacingLeft=4;spacingRight=4;overflow=hidden;rotatable=0;points=[[0,0.5],[1,0.5]];portConstraint=eastwest;whiteSpace=wrap;html=1;" vertex="1" parent="SK56SwvHm7U0KlrYau49-0">
          <mxGeometry y="234" width="152" height="26" as="geometry" />
        </mxCell>
        <mxCell id="SK56SwvHm7U0KlrYau49-14" value="+ friends: List&amp;lt;Friend&amp;gt;" style="text;strokeColor=none;fillColor=none;align=left;verticalAlign=top;spacingLeft=4;spacingRight=4;overflow=hidden;rotatable=0;points=[[0,0.5],[1,0.5]];portConstraint=eastwest;whiteSpace=wrap;html=1;" vertex="1" parent="SK56SwvHm7U0KlrYau49-0">
          <mxGeometry y="260" width="152" height="26" as="geometry" />
        </mxCell>
        <mxCell id="SK56SwvHm7U0KlrYau49-5" value="Habit" style="swimlane;fontStyle=0;childLayout=stackLayout;horizontal=1;startSize=26;fillColor=none;horizontalStack=0;resizeParent=1;resizeParentMax=0;resizeLast=0;collapsible=1;marginBottom=0;whiteSpace=wrap;html=1;" vertex="1" parent="WIyWlLk6GJQsqaUBKTNV-1">
          <mxGeometry x="534" y="180" width="190" height="104" as="geometry" />
        </mxCell>
        <mxCell id="SK56SwvHm7U0KlrYau49-6" value="+ name: String" style="text;strokeColor=none;fillColor=none;align=left;verticalAlign=top;spacingLeft=4;spacingRight=4;overflow=hidden;rotatable=0;points=[[0,0.5],[1,0.5]];portConstraint=eastwest;whiteSpace=wrap;html=1;" vertex="1" parent="SK56SwvHm7U0KlrYau49-5">
          <mxGeometry y="26" width="190" height="26" as="geometry" />
        </mxCell>
        <mxCell id="SK56SwvHm7U0KlrYau49-7" value="+ history: List&amp;lt;DateTime&amp;gt;" style="text;strokeColor=none;fillColor=none;align=left;verticalAlign=top;spacingLeft=4;spacingRight=4;overflow=hidden;rotatable=0;points=[[0,0.5],[1,0.5]];portConstraint=eastwest;whiteSpace=wrap;html=1;" vertex="1" parent="SK56SwvHm7U0KlrYau49-5">
          <mxGeometry y="52" width="190" height="26" as="geometry" />
        </mxCell>
        <mxCell id="SK56SwvHm7U0KlrYau49-22" value="+ frecuency: Frequency" style="text;strokeColor=none;fillColor=none;align=left;verticalAlign=top;spacingLeft=4;spacingRight=4;overflow=hidden;rotatable=0;points=[[0,0.5],[1,0.5]];portConstraint=eastwest;whiteSpace=wrap;html=1;" vertex="1" parent="SK56SwvHm7U0KlrYau49-5">
          <mxGeometry y="78" width="190" height="26" as="geometry" />
        </mxCell>
        <mxCell id="SK56SwvHm7U0KlrYau49-17" value="Frequency" style="swimlane;fontStyle=0;childLayout=stackLayout;horizontal=1;startSize=26;fillColor=none;horizontalStack=0;resizeParent=1;resizeParentMax=0;resizeLast=0;collapsible=1;marginBottom=0;whiteSpace=wrap;html=1;" vertex="1" parent="WIyWlLk6GJQsqaUBKTNV-1">
          <mxGeometry x="559" y="380" width="140" height="78" as="geometry" />
        </mxCell>
        <mxCell id="SK56SwvHm7U0KlrYau49-18" value="+ start: DateTime" style="text;strokeColor=none;fillColor=none;align=left;verticalAlign=top;spacingLeft=4;spacingRight=4;overflow=hidden;rotatable=0;points=[[0,0.5],[1,0.5]];portConstraint=eastwest;whiteSpace=wrap;html=1;" vertex="1" parent="SK56SwvHm7U0KlrYau49-17">
          <mxGeometry y="26" width="140" height="26" as="geometry" />
        </mxCell>
        <mxCell id="SK56SwvHm7U0KlrYau49-19" value="+ period: Duration" style="text;strokeColor=none;fillColor=none;align=left;verticalAlign=top;spacingLeft=4;spacingRight=4;overflow=hidden;rotatable=0;points=[[0,0.5],[1,0.5]];portConstraint=eastwest;whiteSpace=wrap;html=1;" vertex="1" parent="SK56SwvHm7U0KlrYau49-17">
          <mxGeometry y="52" width="140" height="26" as="geometry" />
        </mxCell>
        <mxCell id="SK56SwvHm7U0KlrYau49-23" value="Friend" style="swimlane;fontStyle=0;childLayout=stackLayout;horizontal=1;startSize=26;fillColor=none;horizontalStack=0;resizeParent=1;resizeParentMax=0;resizeLast=0;collapsible=1;marginBottom=0;whiteSpace=wrap;html=1;" vertex="1" parent="WIyWlLk6GJQsqaUBKTNV-1">
          <mxGeometry x="90" y="474" width="140" height="78" as="geometry" />
        </mxCell>
        <mxCell id="SK56SwvHm7U0KlrYau49-24" value="+ user: User" style="text;strokeColor=none;fillColor=none;align=left;verticalAlign=top;spacingLeft=4;spacingRight=4;overflow=hidden;rotatable=0;points=[[0,0.5],[1,0.5]];portConstraint=eastwest;whiteSpace=wrap;html=1;" vertex="1" parent="SK56SwvHm7U0KlrYau49-23">
          <mxGeometry y="26" width="140" height="26" as="geometry" />
        </mxCell>
        <mxCell id="SK56SwvHm7U0KlrYau49-25" value="+ chat: List&amp;lt;Message&amp;gt;" style="text;strokeColor=none;fillColor=none;align=left;verticalAlign=top;spacingLeft=4;spacingRight=4;overflow=hidden;rotatable=0;points=[[0,0.5],[1,0.5]];portConstraint=eastwest;whiteSpace=wrap;html=1;" vertex="1" parent="SK56SwvHm7U0KlrYau49-23">
          <mxGeometry y="52" width="140" height="26" as="geometry" />
        </mxCell>
        <mxCell id="SK56SwvHm7U0KlrYau49-28" value="Message" style="swimlane;fontStyle=0;childLayout=stackLayout;horizontal=1;startSize=26;fillColor=none;horizontalStack=0;resizeParent=1;resizeParentMax=0;resizeLast=0;collapsible=1;marginBottom=0;whiteSpace=wrap;html=1;" vertex="1" parent="WIyWlLk6GJQsqaUBKTNV-1">
          <mxGeometry x="368" y="500" width="140" height="52" as="geometry" />
        </mxCell>
        <mxCell id="SK56SwvHm7U0KlrYau49-29" value="+ timestamp: DateTime" style="text;strokeColor=none;fillColor=none;align=left;verticalAlign=top;spacingLeft=4;spacingRight=4;overflow=hidden;rotatable=0;points=[[0,0.5],[1,0.5]];portConstraint=eastwest;whiteSpace=wrap;html=1;" vertex="1" parent="SK56SwvHm7U0KlrYau49-28">
          <mxGeometry y="26" width="140" height="26" as="geometry" />
        </mxCell>
        <mxCell id="SK56SwvHm7U0KlrYau49-32" value="TextMessage" style="swimlane;fontStyle=0;childLayout=stackLayout;horizontal=1;startSize=26;fillColor=none;horizontalStack=0;resizeParent=1;resizeParentMax=0;resizeLast=0;collapsible=1;marginBottom=0;whiteSpace=wrap;html=1;" vertex="1" parent="WIyWlLk6GJQsqaUBKTNV-1">
          <mxGeometry x="278" y="610" width="140" height="52" as="geometry" />
        </mxCell>
        <mxCell id="SK56SwvHm7U0KlrYau49-36" value="+ text: String" style="text;strokeColor=none;fillColor=none;align=left;verticalAlign=top;spacingLeft=4;spacingRight=4;overflow=hidden;rotatable=0;points=[[0,0.5],[1,0.5]];portConstraint=eastwest;whiteSpace=wrap;html=1;" vertex="1" parent="SK56SwvHm7U0KlrYau49-32">
          <mxGeometry y="26" width="140" height="26" as="geometry" />
        </mxCell>
        <mxCell id="SK56SwvHm7U0KlrYau49-34" value="MediaMessage" style="swimlane;fontStyle=0;childLayout=stackLayout;horizontal=1;startSize=26;fillColor=none;horizontalStack=0;resizeParent=1;resizeParentMax=0;resizeLast=0;collapsible=1;marginBottom=0;whiteSpace=wrap;html=1;" vertex="1" parent="WIyWlLk6GJQsqaUBKTNV-1">
          <mxGeometry x="468" y="610" width="140" height="52" as="geometry" />
        </mxCell>
        <mxCell id="SK56SwvHm7U0KlrYau49-37" value="+ file: File" style="text;strokeColor=none;fillColor=none;align=left;verticalAlign=top;spacingLeft=4;spacingRight=4;overflow=hidden;rotatable=0;points=[[0,0.5],[1,0.5]];portConstraint=eastwest;whiteSpace=wrap;html=1;" vertex="1" parent="SK56SwvHm7U0KlrYau49-34">
          <mxGeometry y="26" width="140" height="26" as="geometry" />
        </mxCell>
        <mxCell id="SK56SwvHm7U0KlrYau49-38" value="Extends" style="endArrow=block;endSize=16;endFill=0;html=1;rounded=0;exitX=0.5;exitY=0;exitDx=0;exitDy=0;" edge="1" parent="WIyWlLk6GJQsqaUBKTNV-1" source="SK56SwvHm7U0KlrYau49-32" target="SK56SwvHm7U0KlrYau49-28">
          <mxGeometry width="160" relative="1" as="geometry">
            <mxPoint x="558" y="510" as="sourcePoint" />
            <mxPoint x="718" y="510" as="targetPoint" />
          </mxGeometry>
        </mxCell>
        <mxCell id="SK56SwvHm7U0KlrYau49-39" value="Extends" style="endArrow=block;endSize=16;endFill=0;html=1;rounded=0;" edge="1" parent="WIyWlLk6GJQsqaUBKTNV-1" source="SK56SwvHm7U0KlrYau49-34" target="SK56SwvHm7U0KlrYau49-28">
          <mxGeometry width="160" relative="1" as="geometry">
            <mxPoint x="358" y="620" as="sourcePoint" />
            <mxPoint x="420" y="562" as="targetPoint" />
          </mxGeometry>
        </mxCell>
        <mxCell id="SK56SwvHm7U0KlrYau49-43" value="Steps" style="swimlane;fontStyle=0;childLayout=stackLayout;horizontal=1;startSize=26;fillColor=none;horizontalStack=0;resizeParent=1;resizeParentMax=0;resizeLast=0;collapsible=1;marginBottom=0;whiteSpace=wrap;html=1;" vertex="1" parent="WIyWlLk6GJQsqaUBKTNV-1">
          <mxGeometry x="30" y="336" width="140" height="78" as="geometry" />
        </mxCell>
        <mxCell id="SK56SwvHm7U0KlrYau49-44" value="+ date: Date" style="text;strokeColor=none;fillColor=none;align=left;verticalAlign=top;spacingLeft=4;spacingRight=4;overflow=hidden;rotatable=0;points=[[0,0.5],[1,0.5]];portConstraint=eastwest;whiteSpace=wrap;html=1;" vertex="1" parent="SK56SwvHm7U0KlrYau49-43">
          <mxGeometry y="26" width="140" height="26" as="geometry" />
        </mxCell>
        <mxCell id="SK56SwvHm7U0KlrYau49-45" value="+ quantity: Int" style="text;strokeColor=none;fillColor=none;align=left;verticalAlign=top;spacingLeft=4;spacingRight=4;overflow=hidden;rotatable=0;points=[[0,0.5],[1,0.5]];portConstraint=eastwest;whiteSpace=wrap;html=1;" vertex="1" parent="SK56SwvHm7U0KlrYau49-43">
          <mxGeometry y="52" width="140" height="26" as="geometry" />
        </mxCell>
        <mxCell id="SK56SwvHm7U0KlrYau49-50" value="&lt;p style=&quot;margin:0px;margin-top:4px;text-align:center;text-decoration:underline;&quot;&gt;&lt;b&gt;DarkMode&lt;/b&gt;&lt;/p&gt;&lt;hr&gt;&lt;p style=&quot;margin:0px;margin-left:8px;&quot;&gt;Enabled&lt;br&gt;Disabled&lt;br&gt;Auto&lt;/p&gt;" style="verticalAlign=top;align=left;overflow=fill;fontSize=12;fontFamily=Helvetica;html=1;whiteSpace=wrap;" vertex="1" parent="WIyWlLk6GJQsqaUBKTNV-1">
          <mxGeometry x="130" y="180" width="86" height="90" as="geometry" />
        </mxCell>
        <mxCell id="SK56SwvHm7U0KlrYau49-53" value="1..*" style="endArrow=open;html=1;endSize=12;startArrow=diamondThin;startSize=14;startFill=0;edgeStyle=orthogonalEdgeStyle;align=left;verticalAlign=bottom;rounded=0;exitX=0;exitY=0.5;exitDx=0;exitDy=0;" edge="1" parent="WIyWlLk6GJQsqaUBKTNV-1" source="SK56SwvHm7U0KlrYau49-42" target="SK56SwvHm7U0KlrYau49-43">
          <mxGeometry x="-0.2963" relative="1" as="geometry">
            <mxPoint x="100" y="460" as="sourcePoint" />
            <mxPoint x="260" y="460" as="targetPoint" />
            <mxPoint as="offset" />
          </mxGeometry>
        </mxCell>
        <mxCell id="SK56SwvHm7U0KlrYau49-56" value="0..*" style="endArrow=open;html=1;endSize=12;startArrow=diamondThin;startSize=14;startFill=0;edgeStyle=orthogonalEdgeStyle;align=left;verticalAlign=bottom;rounded=0;" edge="1" parent="WIyWlLk6GJQsqaUBKTNV-1" source="SK56SwvHm7U0KlrYau49-14" target="SK56SwvHm7U0KlrYau49-23">
          <mxGeometry x="-0.528" relative="1" as="geometry">
            <mxPoint x="110" y="490" as="sourcePoint" />
            <mxPoint x="270" y="490" as="targetPoint" />
            <mxPoint as="offset" />
          </mxGeometry>
        </mxCell>
        <mxCell id="09eP6qGNarIg0b3eFdhU-2" value="0..*" style="endArrow=open;html=1;endSize=12;startArrow=diamondThin;startSize=14;startFill=0;edgeStyle=orthogonalEdgeStyle;align=left;verticalAlign=bottom;rounded=0;" edge="1" parent="WIyWlLk6GJQsqaUBKTNV-1" source="SK56SwvHm7U0KlrYau49-25">
          <mxGeometry x="-1" y="3" relative="1" as="geometry">
            <mxPoint x="260" y="538.5" as="sourcePoint" />
            <mxPoint x="370" y="539" as="targetPoint" />
          </mxGeometry>
        </mxCell>
        <mxCell id="09eP6qGNarIg0b3eFdhU-1" value="0..*" style="endArrow=open;html=1;endSize=12;startArrow=diamondThin;startSize=14;startFill=0;edgeStyle=orthogonalEdgeStyle;align=left;verticalAlign=bottom;rounded=0;entryX=0;entryY=0.5;entryDx=0;entryDy=0;" edge="1" parent="WIyWlLk6GJQsqaUBKTNV-1" source="SK56SwvHm7U0KlrYau49-3" target="SK56SwvHm7U0KlrYau49-7">
          <mxGeometry x="-1" y="3" relative="1" as="geometry">
            <mxPoint x="418" y="244.5" as="sourcePoint" />
            <mxPoint x="578" y="244.5" as="targetPoint" />
          </mxGeometry>
        </mxCell>
        <mxCell id="SK56SwvHm7U0KlrYau49-57" value="1" style="endArrow=open;html=1;endSize=12;startArrow=diamondThin;startSize=14;startFill=1;edgeStyle=orthogonalEdgeStyle;align=left;verticalAlign=bottom;rounded=0;" edge="1" parent="WIyWlLk6GJQsqaUBKTNV-1" source="SK56SwvHm7U0KlrYau49-49" target="SK56SwvHm7U0KlrYau49-50">
          <mxGeometry x="-0.6647" y="1" relative="1" as="geometry">
            <mxPoint x="90" y="290" as="sourcePoint" />
            <mxPoint x="250" y="290" as="targetPoint" />
            <Array as="points">
              <mxPoint x="190" y="370" />
            </Array>
            <mxPoint as="offset" />
          </mxGeometry>
        </mxCell>
        <mxCell id="SK56SwvHm7U0KlrYau49-58" value="1" style="endArrow=open;html=1;endSize=12;startArrow=diamondThin;startSize=14;startFill=1;edgeStyle=orthogonalEdgeStyle;align=left;verticalAlign=bottom;rounded=0;" edge="1" parent="WIyWlLk6GJQsqaUBKTNV-1" source="SK56SwvHm7U0KlrYau49-22" target="SK56SwvHm7U0KlrYau49-17">
          <mxGeometry x="-1" y="3" relative="1" as="geometry">
            <mxPoint x="570" y="340" as="sourcePoint" />
            <mxPoint x="730" y="340" as="targetPoint" />
            <Array as="points">
              <mxPoint x="750" y="271" />
              <mxPoint x="750" y="340" />
              <mxPoint x="629" y="340" />
            </Array>
          </mxGeometry>
        </mxCell>
        <mxCell id="8IAGy-MC7tgbbNJWEaKq-0" value="TimeControlHabit" style="swimlane;fontStyle=0;childLayout=stackLayout;horizontal=1;startSize=26;fillColor=none;horizontalStack=0;resizeParent=1;resizeParentMax=0;resizeLast=0;collapsible=1;marginBottom=0;whiteSpace=wrap;html=1;" vertex="1" parent="WIyWlLk6GJQsqaUBKTNV-1">
          <mxGeometry x="860" y="100" width="210" height="78" as="geometry" />
        </mxCell>
        <mxCell id="8IAGy-MC7tgbbNJWEaKq-1" value="+ objective: Duration" style="text;strokeColor=none;fillColor=none;align=left;verticalAlign=top;spacingLeft=4;spacingRight=4;overflow=hidden;rotatable=0;points=[[0,0.5],[1,0.5]];portConstraint=eastwest;whiteSpace=wrap;html=1;" vertex="1" parent="8IAGy-MC7tgbbNJWEaKq-0">
          <mxGeometry y="26" width="210" height="26" as="geometry" />
        </mxCell>
        <mxCell id="8IAGy-MC7tgbbNJWEaKq-4" value="+ accomplishment: List&amp;lt;Duration&amp;gt;" style="text;strokeColor=none;fillColor=none;align=left;verticalAlign=top;spacingLeft=4;spacingRight=4;overflow=hidden;rotatable=0;points=[[0,0.5],[1,0.5]];portConstraint=eastwest;whiteSpace=wrap;html=1;" vertex="1" parent="8IAGy-MC7tgbbNJWEaKq-0">
          <mxGeometry y="52" width="210" height="26" as="geometry" />
        </mxCell>
        <mxCell id="8IAGy-MC7tgbbNJWEaKq-5" value="StepsHabit" style="swimlane;fontStyle=0;childLayout=stackLayout;horizontal=1;startSize=26;fillColor=none;horizontalStack=0;resizeParent=1;resizeParentMax=0;resizeLast=0;collapsible=1;marginBottom=0;whiteSpace=wrap;html=1;" vertex="1" parent="WIyWlLk6GJQsqaUBKTNV-1">
          <mxGeometry x="860" y="238" width="180" height="78" as="geometry" />
        </mxCell>
        <mxCell id="8IAGy-MC7tgbbNJWEaKq-6" value="+ objective: Int" style="text;strokeColor=none;fillColor=none;align=left;verticalAlign=top;spacingLeft=4;spacingRight=4;overflow=hidden;rotatable=0;points=[[0,0.5],[1,0.5]];portConstraint=eastwest;whiteSpace=wrap;html=1;" vertex="1" parent="8IAGy-MC7tgbbNJWEaKq-5">
          <mxGeometry y="26" width="180" height="26" as="geometry" />
        </mxCell>
        <mxCell id="8IAGy-MC7tgbbNJWEaKq-7" value="+ accomplishment: List&amp;lt;Int&amp;gt;" style="text;strokeColor=none;fillColor=none;align=left;verticalAlign=top;spacingLeft=4;spacingRight=4;overflow=hidden;rotatable=0;points=[[0,0.5],[1,0.5]];portConstraint=eastwest;whiteSpace=wrap;html=1;" vertex="1" parent="8IAGy-MC7tgbbNJWEaKq-5">
          <mxGeometry y="52" width="180" height="26" as="geometry" />
        </mxCell>
        <mxCell id="8IAGy-MC7tgbbNJWEaKq-8" value="RunningHabit" style="swimlane;fontStyle=0;childLayout=stackLayout;horizontal=1;startSize=26;fillColor=none;horizontalStack=0;resizeParent=1;resizeParentMax=0;resizeLast=0;collapsible=1;marginBottom=0;whiteSpace=wrap;html=1;" vertex="1" parent="WIyWlLk6GJQsqaUBKTNV-1">
          <mxGeometry x="1190" y="80" width="180" height="130" as="geometry" />
        </mxCell>
        <mxCell id="8IAGy-MC7tgbbNJWEaKq-9" value="+ distance: long" style="text;strokeColor=none;fillColor=none;align=left;verticalAlign=top;spacingLeft=4;spacingRight=4;overflow=hidden;rotatable=0;points=[[0,0.5],[1,0.5]];portConstraint=eastwest;whiteSpace=wrap;html=1;" vertex="1" parent="8IAGy-MC7tgbbNJWEaKq-8">
          <mxGeometry y="26" width="180" height="26" as="geometry" />
        </mxCell>
        <mxCell id="8IAGy-MC7tgbbNJWEaKq-10" value="+ accomplishment: List&amp;lt;long&amp;gt;" style="text;strokeColor=none;fillColor=none;align=left;verticalAlign=top;spacingLeft=4;spacingRight=4;overflow=hidden;rotatable=0;points=[[0,0.5],[1,0.5]];portConstraint=eastwest;whiteSpace=wrap;html=1;" vertex="1" parent="8IAGy-MC7tgbbNJWEaKq-8">
          <mxGeometry y="52" width="180" height="26" as="geometry" />
        </mxCell>
        <mxCell id="ENqfuSwn85bR71tKV6ZV-2" value="+ startLocation: LocationData" style="text;strokeColor=none;fillColor=none;align=left;verticalAlign=top;spacingLeft=4;spacingRight=4;overflow=hidden;rotatable=0;points=[[0,0.5],[1,0.5]];portConstraint=eastwest;whiteSpace=wrap;html=1;" vertex="1" parent="8IAGy-MC7tgbbNJWEaKq-8">
          <mxGeometry y="78" width="180" height="26" as="geometry" />
        </mxCell>
        <mxCell id="ENqfuSwn85bR71tKV6ZV-3" value="+ endLocation: LocationData" style="text;strokeColor=none;fillColor=none;align=left;verticalAlign=top;spacingLeft=4;spacingRight=4;overflow=hidden;rotatable=0;points=[[0,0.5],[1,0.5]];portConstraint=eastwest;whiteSpace=wrap;html=1;" vertex="1" parent="8IAGy-MC7tgbbNJWEaKq-8">
          <mxGeometry y="104" width="180" height="26" as="geometry" />
        </mxCell>
        <mxCell id="8IAGy-MC7tgbbNJWEaKq-11" value="Extends" style="endArrow=block;endSize=16;endFill=0;html=1;rounded=0;" edge="1" parent="WIyWlLk6GJQsqaUBKTNV-1" source="8IAGy-MC7tgbbNJWEaKq-8" target="8IAGy-MC7tgbbNJWEaKq-0">
          <mxGeometry width="160" relative="1" as="geometry">
            <mxPoint x="1050" y="338" as="sourcePoint" />
            <mxPoint x="1120" y="208" as="targetPoint" />
          </mxGeometry>
        </mxCell>
        <mxCell id="8IAGy-MC7tgbbNJWEaKq-12" value="Extends" style="endArrow=block;endSize=16;endFill=0;html=1;rounded=0;" edge="1" parent="WIyWlLk6GJQsqaUBKTNV-1" source="8IAGy-MC7tgbbNJWEaKq-0" target="SK56SwvHm7U0KlrYau49-5">
          <mxGeometry width="160" relative="1" as="geometry">
            <mxPoint x="864" y="138.5" as="sourcePoint" />
            <mxPoint x="724" y="138.5" as="targetPoint" />
          </mxGeometry>
        </mxCell>
        <mxCell id="8IAGy-MC7tgbbNJWEaKq-13" value="Extends" style="endArrow=block;endSize=16;endFill=0;html=1;rounded=0;" edge="1" parent="WIyWlLk6GJQsqaUBKTNV-1" source="8IAGy-MC7tgbbNJWEaKq-5" target="SK56SwvHm7U0KlrYau49-5">
          <mxGeometry width="160" relative="1" as="geometry">
            <mxPoint x="870" y="179" as="sourcePoint" />
            <mxPoint x="734" y="224" as="targetPoint" />
          </mxGeometry>
        </mxCell>
        <mxCell id="8IAGy-MC7tgbbNJWEaKq-14" value="StrengthHabit" style="swimlane;fontStyle=0;childLayout=stackLayout;horizontal=1;startSize=26;fillColor=none;horizontalStack=0;resizeParent=1;resizeParentMax=0;resizeLast=0;collapsible=1;marginBottom=0;whiteSpace=wrap;html=1;" vertex="1" parent="WIyWlLk6GJQsqaUBKTNV-1">
          <mxGeometry x="526" y="10" width="206" height="78" as="geometry" />
        </mxCell>
        <mxCell id="8IAGy-MC7tgbbNJWEaKq-15" value="+ muscularGroup: muscularGroup" style="text;strokeColor=none;fillColor=none;align=left;verticalAlign=top;spacingLeft=4;spacingRight=4;overflow=hidden;rotatable=0;points=[[0,0.5],[1,0.5]];portConstraint=eastwest;whiteSpace=wrap;html=1;" vertex="1" parent="8IAGy-MC7tgbbNJWEaKq-14">
          <mxGeometry y="26" width="206" height="26" as="geometry" />
        </mxCell>
        <mxCell id="8IAGy-MC7tgbbNJWEaKq-22" value="+ accomplishment: List&amp;lt;Float&amp;gt;" style="text;strokeColor=none;fillColor=none;align=left;verticalAlign=top;spacingLeft=4;spacingRight=4;overflow=hidden;rotatable=0;points=[[0,0.5],[1,0.5]];portConstraint=eastwest;whiteSpace=wrap;html=1;" vertex="1" parent="8IAGy-MC7tgbbNJWEaKq-14">
          <mxGeometry y="52" width="206" height="26" as="geometry" />
        </mxCell>
        <mxCell id="8IAGy-MC7tgbbNJWEaKq-18" value="&lt;p style=&quot;margin:0px;margin-top:4px;text-align:center;text-decoration:underline;&quot;&gt;&lt;b&gt;MuscularGroup&lt;/b&gt;&lt;/p&gt;&lt;hr&gt;&lt;p style=&quot;margin:0px;margin-left:8px;&quot;&gt;Chest&lt;/p&gt;&lt;p style=&quot;margin:0px;margin-left:8px;&quot;&gt;Back&lt;/p&gt;&lt;p style=&quot;margin:0px;margin-left:8px;&quot;&gt;Arms&lt;/p&gt;&lt;p style=&quot;margin:0px;margin-left:8px;&quot;&gt;Shoulders&lt;/p&gt;&lt;p style=&quot;margin:0px;margin-left:8px;&quot;&gt;Thighs&lt;br&gt;&lt;/p&gt;&lt;p style=&quot;margin:0px;margin-left:8px;&quot;&gt;Calfs&lt;/p&gt;&lt;p style=&quot;margin:0px;margin-left:8px;&quot;&gt;Other(String)&lt;/p&gt;" style="verticalAlign=top;align=left;overflow=fill;fontSize=12;fontFamily=Helvetica;html=1;whiteSpace=wrap;" vertex="1" parent="WIyWlLk6GJQsqaUBKTNV-1">
          <mxGeometry x="288" y="-21" width="120" height="140" as="geometry" />
        </mxCell>
        <mxCell id="8IAGy-MC7tgbbNJWEaKq-20" value="Extends" style="endArrow=block;endSize=16;endFill=0;html=1;rounded=0;" edge="1" parent="WIyWlLk6GJQsqaUBKTNV-1" source="8IAGy-MC7tgbbNJWEaKq-14" target="SK56SwvHm7U0KlrYau49-5">
          <mxGeometry width="160" relative="1" as="geometry">
            <mxPoint x="746" y="100" as="sourcePoint" />
            <mxPoint x="610" y="145" as="targetPoint" />
          </mxGeometry>
        </mxCell>
        <mxCell id="8IAGy-MC7tgbbNJWEaKq-21" value="1" style="endArrow=open;html=1;endSize=12;startArrow=diamondThin;startSize=14;startFill=1;edgeStyle=orthogonalEdgeStyle;align=left;verticalAlign=bottom;rounded=0;" edge="1" parent="WIyWlLk6GJQsqaUBKTNV-1" source="8IAGy-MC7tgbbNJWEaKq-15" target="8IAGy-MC7tgbbNJWEaKq-18">
          <mxGeometry x="-0.6149" relative="1" as="geometry">
            <mxPoint x="460" y="80" as="sourcePoint" />
            <mxPoint x="620" as="targetPoint" />
            <mxPoint as="offset" />
          </mxGeometry>
        </mxCell>
      </root>
    </mxGraphModel>
  </diagram>
</mxfile>
